HIERARCHY
ROOT Hips
{
	OFFSET 0.00000 0.00000 0.00000
	CHANNELS 6 Xposition Yposition Zposition Zrotation Yrotation Xrotation 
	JOINT LHipJoint
	{
		OFFSET 0 0 0
		CHANNELS 3 Zrotation Yrotation Xrotation
		JOINT LeftHip
		{
			OFFSET 1.26600 -1.82114 0.91038
			CHANNELS 3 Zrotation Yrotation Xrotation
			JOINT LeftKnee
			{
				OFFSET 2.50076 -6.87080 0.00000
				CHANNELS 3 Zrotation Yrotation Xrotation
				JOINT LeftAnkle
				{
					OFFSET 2.57364 -7.07102 0.00000
					CHANNELS 3 Zrotation Yrotation Xrotation
					JOINT LeftToe
					{
						OFFSET 0.13572 -0.37290 1.97004
						CHANNELS 3 Zrotation Yrotation Xrotation
						End Site
						{
							OFFSET 0.00000 -0.00000 1.01383
						}
					}
				}
			}
		}
	}
	JOINT RHipJoint
	{
		OFFSET 0 0 0
		CHANNELS 3 Zrotation Yrotation Xrotation
		JOINT RightHip
		{
			OFFSET -1.20803 -1.82114 0.91038
			CHANNELS 3 Zrotation Yrotation Xrotation
			JOINT RightKnee
			{
				OFFSET -2.54916 -7.00377 0.00000
				CHANNELS 3 Zrotation Yrotation Xrotation
				JOINT RightAnkle
				{
					OFFSET -2.56374 -7.04382 0.00000
					CHANNELS 3 Zrotation Yrotation Xrotation
					JOINT RightToe
					{
						OFFSET -0.23520 -0.64621 2.09921
						CHANNELS 3 Zrotation Yrotation Xrotation
						End Site
						{
							OFFSET -0.00000 -0.00000 1.10065
						}
					}
				}
			}
		}
	}
	JOINT lowerback
	{
		OFFSET 0 0 0
		CHANNELS 3 Zrotation Yrotation Xrotation
		JOINT Chest
		{
			OFFSET 0.05492 2.10797 -0.12074
			CHANNELS 3 Zrotation Yrotation Xrotation
			JOINT Chest2
			{
				OFFSET 0.04577 2.11592 -0.04483
				CHANNELS 3 Zrotation Yrotation Xrotation
				JOINT lowerneck
				{
					OFFSET 0 0 0
					CHANNELS 3 Zrotation Yrotation Xrotation
					JOINT Neck
					{
						OFFSET -0.10759 1.80167 0.15770
						CHANNELS 3 Zrotation Yrotation Xrotation
						JOINT Head
						{
							OFFSET 0.09237 1.77509 -0.40848
							CHANNELS 3 Zrotation Yrotation Xrotation
							End Site
							{
								OFFSET 0.03805 1.84093 -0.15754
							}
						}
					}
				}
				JOINT LeftCollar
				{
					OFFSET 0 0 0
					CHANNELS 3 Zrotation Yrotation Xrotation
					JOINT LeftShoulder
					{
						OFFSET 3.42372 1.09575 -0.28209
CHANNELS 3 Zrotation Xrotation Yrotation
						JOINT LeftElbow
						{
OFFSET 0 -4.956810 0.000000
CHANNELS 3 Zrotation Xrotation Yrotation
							JOINT LeftWrist
							{
OFFSET 0 -3.409150 0.000000
CHANNELS 3 Zrotation Xrotation Yrotation
								JOINT lhand
								{
									OFFSET 0 0 0
CHANNELS 3 Zrotation Xrotation Yrotation
									JOINT LFingers
									{
OFFSET 0 -0.616400 0.000000
CHANNELS 3 Zrotation Xrotation Yrotation
										End Site
										{
OFFSET 0 -0.496960 0.000000
										}
									}
								}
								JOINT LThumb
								{
OFFSET 0 0.000000 0.000000
CHANNELS 3 Zrotation Xrotation Yrotation
									End Site
									{
OFFSET 0 -0.504550 0.504550
									}
								}
							}
						}
					}
				}
				JOINT RightCollar
				{
					OFFSET 0 0 0
					CHANNELS 3 Zrotation Yrotation Xrotation
					JOINT RightShoulder
					{
						OFFSET -3.24731 1.15872 -0.32221
CHANNELS 3 Zrotation Xrotation Yrotation
						JOINT RightElbow
						{
OFFSET 0 -5.352000 0.000000
CHANNELS 3 Zrotation Xrotation Yrotation
							JOINT RightWrist
							{
OFFSET 0 -3.437210 -0.000000
CHANNELS 3 Zrotation Xrotation Yrotation
								JOINT rhand
								{
									OFFSET 0 0 0
CHANNELS 3 Zrotation Xrotation Yrotation
									JOINT RFingers
									{
OFFSET 0 -0.720090 0.000000
CHANNELS 3 Zrotation Xrotation Yrotation
										End Site
										{
OFFSET 0 -0.580560 0.000000
										}
									}
								}
								JOINT RThumb
								{
OFFSET 0 0.000000 0.000000
CHANNELS 3 Zrotation Xrotation Yrotation
									End Site
									{
OFFSET 0 -0.589420 0.589420
									}
								}
							}
						}
					}
				}
			}
		}
	}
}
MOTION
Frames: 12
Frame Time: 0.008333333333333333
31.446500 17.985800 8.225100 -3.686300 -16.102100 4.795500 0.000000 0.000000 0.000000 -16.479400 -1.768500 -6.893200 1.997700 8.861400 25.362700 1.069000 -2.907500 -18.787000 0.003600 -0.390100 -1.071800 0.000000 0.000000 0.000000 23.846100 4.534900 -8.433900 -2.372600 -9.602500 27.698800 -1.012500 8.118100 -18.024500 -0.040300 -1.295800 3.563200 -1.083500 -1.422700 -0.237100 1.667800 -1.883800 -2.607000 2.354700 -0.900900 -2.451100 -16.821700 -11.175700 -6.121400 12.194700 -16.480400 23.524200 5.010800 -8.063700 11.046900 -0.000000 -0.000000 0.000000 -3.431900 10.125800 -22.037200 10.386600 -17.341900 1.588200 31.736500 26.176100 -35.691700 0.000000 0.000000 0.000000 -7.125000 0.000000 0.000000 -2.563700 70.150600 1.541200 -0.000000 -0.000000 0.000000 -0.702500 6.915700 28.079900 -12.654700 -20.779200 -2.329400 -19.825900 -5.909100 -3.020200 0.000000 0.000000 0.000000 7.125000 0.000000 -0.000000 5.171600 26.761700 2.297700
31.524602 17.973763 8.232208 -4.315779 -15.636068 4.632059 0.000000 0.000000 0.000000 -15.952732 -1.352805 -7.365339 2.156975 9.185714 26.377947 1.104933 -3.820767 -18.963267 0.013920 -0.761234 -2.092058 0.000000 0.000000 0.000000 24.385609 4.143618 -7.884228 -2.267021 -9.401459 27.059376 -1.023285 7.143039 -18.064597 -0.000184 -0.057941 0.159196 0.469210 -1.247948 -0.283091 2.236872 -1.628947 -2.221155 2.056774 -0.803351 -2.066556 -13.958358 -8.026116 -10.629864 7.750817 -11.034987 29.575935 3.697999 -5.649932 12.872614 0.000000 0.000000 0.000000 -3.138606 9.131765 -24.074555 12.270754 -20.209325 2.194987 27.981360 18.502741 -33.628130 0.000000 0.000000 0.000000 -7.125000 0.000000 0.000000 -6.222619 66.866182 3.287354 0.000000 0.000000 0.000000 -1.171680 4.587604 25.262296 -12.979716 -21.257443 -2.445927 -18.628966 -8.013277 -5.696146 0.000000 0.000000 0.000000 7.125000 0.000000 0.000000 5.998453 23.973681 3.054883
31.625095 17.959584 8.272230 -3.948568 -15.052951 4.052775 0.000000 0.000000 0.000000 -16.712123 -1.495970 -6.864877 2.172275 9.215987 26.473456 1.108861 -4.219808 -18.946439 0.000959 -0.188563 -0.518174 0.000000 0.000000 0.000000 23.615955 3.668815 -7.425576 -2.278267 -9.423050 27.127949 -1.055521 7.103910 -18.345555 -0.006941 -0.531994 1.461902 1.269985 -0.859764 -0.576331 2.648299 -1.121317 -1.652815 2.010301 -0.561252 -1.342083 -11.332912 -4.645268 -13.137634 4.171427 -5.390692 34.379871 2.789249 -3.337825 14.493336 0.000000 0.000000 0.000000 -2.883383 7.918737 -26.022998 14.600144 -23.585258 3.064689 20.965384 7.186531 -29.054934 0.000000 0.000000 0.000000 -7.125000 0.000000 0.000000 -11.571384 60.357279 4.379391 0.000000 0.000000 0.000000 -2.008377 3.116328 23.819514 -14.184394 -22.997502 -2.899926 -19.204191 -10.471540 -7.008298 0.000000 0.000000 0.000000 7.125000 0.000000 0.000000 5.547490 22.573315 3.006198
31.756863 17.916827 8.290319 -4.533367 -13.849612 3.481606 0.000000 0.000000 0.000000 -16.427808 -1.781981 -6.762466 2.317206 9.497776 27.365089 1.117412 -5.157651 -18.931262 0.008623 0.587024 1.613262 0.000000 0.000000 0.000000 23.993287 3.804334 -6.559206 -2.334880 -9.531223 27.471665 -1.175309 5.640007 -19.398186 -0.000165 -0.048603 0.133505 3.037064 -0.494962 -0.273580 3.197772 -0.649695 -0.733698 1.578420 -0.335339 -0.595611 -9.492424 -2.395200 -14.545440 1.648436 -1.433283 36.974812 2.110905 -1.794833 15.603177 0.000000 0.000000 0.000000 -2.724608 6.721323 -27.794376 17.880999 -28.003502 4.493761 17.420592 -1.262731 -24.841383 0.000000 0.000000 0.000000 -7.125000 0.000000 0.000000 -13.022712 55.386173 3.363430 0.000000 0.000000 0.000000 -3.099814 2.459575 24.878840 -16.253948 -25.863668 -3.756085 -21.062812 -15.226140 -7.799978 0.000000 0.000000 0.000000 7.125000 0.000000 0.000000 4.189527 21.638617 2.357510
31.894778 17.846788 8.330838 -3.442431 -12.342033 1.980075 0.000000 0.000000 0.000000 -18.075842 -1.941667 -5.256980 2.285178 9.436398 27.170104 1.134076 -6.086308 -19.027390 0.001178 -0.040902 -0.112218 0.000000 0.000000 0.000000 22.797284 5.147878 -5.600729 -2.718134 -10.223807 29.704821 -1.358789 3.414162 -21.183293 -0.012223 -0.678289 1.864169 2.731738 -0.309608 0.812898 3.264860 -0.375625 -0.071659 1.821255 -0.194022 -0.525038 -9.959665 -1.562404 -12.849631 1.608510 -0.192120 37.197552 2.392937 -1.335356 15.221678 0.000000 0.000000 0.000000 -2.641149 6.521320 -28.758735 21.554530 -32.469174 6.345344 15.461811 -2.184899 -27.512084 0.000000 0.000000 0.000000 -7.125000 0.000000 0.000000 -16.514987 57.595000 5.187057 0.000000 0.000000 0.000000 -4.081537 2.918007 25.175586 -17.944358 -28.085756 -4.523111 -21.249596 -17.815239 -8.967025 0.000000 0.000000 0.000000 7.125000 0.000000 0.000000 4.067828 20.381891 2.402373
32.027144 17.803128 8.406023 -0.918298 -10.697234 0.578367 0.000000 0.000000 0.000000 -21.134292 -1.099028 -3.895433 2.117254 9.106076 26.127701 1.057442 -8.422845 -18.436495 0.016008 0.814549 2.238726 0.000000 0.000000 0.000000 19.987607 6.089316 -7.262634 -3.963823 -12.111292 36.127979 -1.394965 0.075388 -22.321830 -0.263177 3.299655 -9.114233 0.920010 -0.047650 1.443826 2.526575 -0.051008 0.750449 2.073859 -0.028950 -0.039226 -9.993307 -1.762413 -13.187294 2.152627 -0.606044 37.967501 2.584290 -1.456763 15.714003 0.000000 0.000000 0.000000 -1.870713 5.677381 -29.867500 23.655841 -34.798112 7.509241 16.392116 -1.096448 -26.998018 0.000000 0.000000 0.000000 -7.125000 0.000000 0.000000 -15.238578 57.295386 4.662600 0.000000 0.000000 0.000000 -4.337674 2.597280 24.371783 -18.061659 -28.236096 -4.578409 -20.692061 -17.564954 -9.552823 0.000000 0.000000 0.000000 7.125000 0.000000 0.000000 4.476380 19.797453 2.703929
32.151316 17.738099 8.460476 1.369209 -9.306739 -0.453939 0.000000 0.000000 0.000000 -23.894262 -0.295847 -2.420905 1.800067 8.436518 24.048182 0.841023 -10.334869 -16.836491 0.102561 2.064978 5.685151 0.000000 0.000000 0.000000 16.471904 8.368499 -12.546796 -7.057335 -15.378798 49.088712 -0.941497 1.239445 -17.959339 -0.007597 -0.560922 1.541226 -0.965014 -0.140444 2.500328 2.063334 -0.204627 1.324834 2.662962 -0.114562 -0.032606 -10.480037 -1.771121 -13.301166 2.610715 -0.610728 38.283359 2.879283 -1.470527 15.908840 0.000000 0.000000 0.000000 -1.908034 4.986396 -28.784604 23.525002 -34.657924 7.434731 16.493681 -1.145327 -25.072777 0.000000 0.000000 0.000000 -7.125000 0.000000 0.000000 -14.090364 55.429440 3.667453 0.000000 0.000000 0.000000 -4.332681 1.784503 22.148397 -17.069396 -26.949113 -4.118737 -20.847798 -14.330730 -8.765342 0.000000 0.000000 0.000000 7.125000 0.000000 0.000000 4.354151 20.623326 2.548665
32.222785 17.797243 8.624979 3.030434 -7.674652 -1.606120 0.000000 0.000000 0.000000 -25.901053 1.331337 1.112388 1.187293 6.914735 19.462948 0.547263 -11.504681 -14.432816 0.194901 2.837680 7.827460 0.000000 0.000000 0.000000 13.485297 8.872604 -20.446125 -10.489986 -17.675384 61.112677 -0.236151 -3.334200 -11.027945 -0.003401 0.349901 -0.961498 -2.457960 -0.039014 3.536767 1.587665 -0.122663 1.908316 3.014797 -0.087159 -0.014413 -10.576438 -2.176198 -12.831171 2.892886 -1.349645 37.959126 2.888586 -1.735248 15.700368 0.000000 0.000000 0.000000 -1.804007 4.832073 -27.467021 21.284786 -32.156959 6.201870 18.359919 0.885759 -22.316221 0.000000 0.000000 0.000000 -7.125000 0.000000 0.000000 -10.981996 53.025569 2.231157 0.000000 0.000000 0.000000 -3.849448 1.646143 19.762995 -15.618801 -25.000894 -3.483439 -22.581773 -14.395846 -8.936381 0.000000 0.000000 0.000000 7.125000 0.000000 0.000000 3.110074 20.321625 1.839051
32.242161 17.816874 8.869228 3.395193 -4.908412 -1.604431 0.000000 0.000000 0.000000 -26.442519 0.718933 3.719746 0.878782 5.976225 16.715542 0.380799 -12.267073 -13.061899 0.170005 2.651558 7.310335 0.000000 0.000000 0.000000 12.260436 7.253016 -26.630399 -11.368067 -18.110449 63.971104 -0.385919 -3.035798 -13.247539 -0.231647 -3.093015 8.538164 -2.945168 -0.567397 3.461326 1.632464 -0.838767 2.156572 3.356892 -0.459380 0.342488 -10.622274 -2.397784 -12.650354 2.939932 -1.699974 37.978740 2.860721 -1.877437 15.702847 0.000000 0.000000 0.000000 -1.942960 4.980807 -25.924477 18.515819 -28.811763 4.795698 20.447208 3.565043 -23.173459 0.000000 0.000000 0.000000 -7.125000 0.000000 0.000000 -9.182038 54.296931 2.117669 0.000000 0.000000 0.000000 -3.299599 2.498829 16.824444 -14.526527 -23.482418 -3.034766 -21.537103 -13.126118 -10.492780 0.000000 0.000000 0.000000 7.125000 0.000000 0.000000 3.896299 18.732475 2.442494
32.216696 17.744739 9.184520 3.609295 -3.672360 -1.487001 0.000000 0.000000 0.000000 -26.855843 -0.122448 4.755049 0.954605 6.221353 17.428139 0.510078 -12.325940 -14.366401 0.187224 2.784482 7.679377 0.000000 0.000000 0.000000 11.997369 6.605921 -30.753282 -9.523113 -17.130980 57.879526 -0.493440 -2.788108 -14.580404 -0.111349 -2.149184 5.918290 -3.820489 -0.583912 3.800775 1.879465 -0.896853 2.009249 4.115596 -0.488384 0.026367 -10.849371 -2.683685 -12.245648 3.224702 -2.222777 38.117451 2.942726 -2.093300 15.735678 0.000000 0.000000 0.000000 -2.644175 5.528977 -22.162738 15.169872 -24.381362 3.296278 20.781415 3.944110 -22.022543 0.000000 0.000000 0.000000 -7.125000 0.000000 0.000000 -8.402419 53.178746 1.706860 0.000000 0.000000 0.000000 -2.905274 4.006492 14.514024 -13.368843 -21.825194 -2.588801 -20.488889 -10.849232 -10.089502 0.000000 0.000000 0.000000 7.125000 0.000000 0.000000 4.629697 19.244167 2.856425
32.161492 17.752866 9.565935 3.048383 -2.624154 -1.235359 0.000000 0.000000 0.000000 -26.085000 0.380290 7.905797 0.604035 4.974207 13.835174 0.441652 -12.115693 -13.615715 0.123345 2.261040 6.227741 0.000000 0.000000 0.000000 12.510722 6.356035 -33.090590 -5.960819 -14.387763 44.819709 -0.353534 -2.290711 -12.307343 -0.050084 -1.441428 3.964443 -3.424530 -0.536876 4.154257 2.024771 -0.829876 2.189779 4.043402 -0.455258 0.003716 -11.022418 -3.024636 -12.147418 3.937356 -2.953811 37.422082 3.145409 -2.302823 15.445562 0.000000 0.000000 0.000000 -2.373850 6.393951 -20.549037 12.677313 -20.812480 2.337486 19.768649 6.552931 -23.342597 0.000000 0.000000 0.000000 -7.125000 0.000000 0.000000 -9.944330 54.338958 2.304097 0.000000 0.000000 0.000000 -2.008824 5.113352 13.022333 -12.603929 -20.704123 -2.311409 -20.879807 -10.830651 -10.032397 0.000000 0.000000 0.000000 7.125000 0.000000 0.000000 4.351011 19.274594 2.678541
32.070150 17.677239 10.041469 2.990207 -1.253971 -1.056625 0.000000 0.000000 0.000000 -25.879857 -0.116237 10.983994 0.433694 4.225904 11.713091 0.440446 -11.834807 -13.492822 0.212794 2.969962 8.194996 0.000000 0.000000 0.000000 12.196893 6.449072 -32.383999 -2.727783 -10.240268 29.758644 -0.299547 -1.081963 -10.789790 -0.173966 -2.680215 7.390045 -3.720528 -0.786115 4.249281 2.071767 -1.174494 2.415193 4.272284 -0.640038 0.224072 -11.157526 -3.181029 -12.275042 4.430273 -3.304685 36.981911 3.312187 -2.387377 15.304572 0.000000 0.000000 0.000000 -2.300112 7.232616 -18.531940 10.665994 -17.774422 1.672578 19.576399 9.075077 -21.886004 0.000000 0.000000 0.000000 -7.125000 0.000000 0.000000 -9.560002 52.820345 1.853222 0.000000 0.000000 0.000000 -1.259339 5.852806 10.996320 -11.788089 -19.486080 -2.031096 -19.993287 -8.778212 -10.209763 0.000000 0.000000 0.000000 7.125000 0.000000 0.000000 4.983770 19.152471 3.084501
